<svg xmlns="http://www.w3.org/2000/svg" width="32" height="32" viewBox="0 0 24 24" aria-hidden="true">
	<defs>
			<linearGradient id="monoGrad" x1="0" y1="0" x2="1" y2="1">
				<stop offset="0" stop-color="#ffffff" />
				<stop offset="1" stop-color="#e6e6e6" />
			</linearGradient>
	</defs>

	<!-- Rounded background (mimics rounded-full + padding) -->
	<rect x="0" y="0" width="24" height="24" rx="12" ry="12" fill="url(#monoGrad)" />

	<!-- Scale icon (dark stroke) -->
	<g fill="none" stroke="#0f172a" stroke-width="1.6" stroke-linecap="round" stroke-linejoin="round">
		<path d="M12 3v18" />
		<path d="m19 8 3 8a5 5 0 0 1-6 0zV7" />
		<path d="M3 7h1a17 17 0 0 0 8-2 17 17 0 0 0 8 2h1" />
		<path d="m5 8 3 8a5 5 0 0 1-6 0zV7" />
		<path d="M7 21h10" />
	</g>
</svg>
